<svg width="72" height="72" viewBox="0 0 72 72" fill="none" xmlns="http://www.w3.org/2000/svg">
<path id="Vector" d="M33.6006 1.67594C34.4182 -0.558648 37.5793 -0.558648 38.3968 1.67594L40.8392 8.34565C42.7546 13.578 45.788 18.3296 49.7279 22.2695C53.6678 26.2095 58.4195 29.2428 63.6518 31.1582L70.3215 33.6006C72.5595 34.4182 72.5595 37.5793 70.3215 38.3968L63.6518 40.8392C58.4195 42.7546 53.6678 45.788 49.7279 49.7279C45.788 53.6678 42.7546 58.4195 40.8392 63.6518L38.3968 70.3215C37.5793 72.5595 34.4182 72.5595 33.6006 70.3215L31.1582 63.6518C29.2428 58.4195 26.2095 53.6678 22.2695 49.7279C18.3296 45.788 13.578 42.7546 8.34565 40.8392L1.67594 38.3968C-0.558648 37.5793 -0.558648 34.4182 1.67594 33.6006L8.34565 31.1582C13.578 29.2428 18.3296 26.2095 22.2695 22.2695C26.2095 18.3296 29.2428 13.578 31.1582 8.34565L33.6006 1.67594Z" fill="#B0D0E5"/>
</svg>
